HIERARCHY
ROOT hips
{
  OFFSET 0 10.6860622 2.3727825e-15
  CHANNELS 6 Xposition Yposition Zposition Yrotation Xrotation Zrotation
  JOINT leftUpperLeg
  {
    OFFSET 0.6642549969 -0.9402397400000004 0
    CHANNELS 3 Yrotation Xrotation Zrotation
    JOINT leftLowerLeg
    {
      OFFSET 0 -3.997221335632195 0
      CHANNELS 3 Yrotation Xrotation Zrotation
      JOINT leftFoot
      {
        OFFSET -0.13777839790000004 -4.6145792000000005 -0.22186036399999998
        CHANNELS 3 Yrotation Xrotation Zrotation
        JOINT leftToes
        {
          OFFSET -0.03777410834999995 -0.9130806927000008 0.85230013
          CHANNELS 3 Yrotation Xrotation Zrotation
          End Site
          {
            OFFSET -0.03777410834999995 -0.9130806927000008 0.85230013
          }
        }
      }
    }
  }
  JOINT rightUpperLeg
  {
    OFFSET -0.6642778626 -0.9402397400000004 0
    CHANNELS 3 Yrotation Xrotation Zrotation
    JOINT rightLowerLeg
    {
      OFFSET 0 -3.997221452859387 0
      CHANNELS 3 Yrotation Xrotation Zrotation
      JOINT rightFoot
      {
        OFFSET 0.1377926176 -4.6145792000000005 -0.22185782299999995
        CHANNELS 3 Yrotation Xrotation Zrotation
        JOINT rightToes
        {
          OFFSET 0.037780746850000047 -0.9130806927000008 0.85230167
          CHANNELS 3 Yrotation Xrotation Zrotation
          End Site
          {
            OFFSET 0.037780746850000047 -0.9130806927000008 0.85230167
          }
        }
      }
    }
  }
  JOINT spine
  {
    OFFSET 0 0.13988381660000015 0
    CHANNELS 3 Yrotation Xrotation Zrotation
    JOINT chest
    {
      OFFSET 0 0.6191039003973773 0
      CHANNELS 3 Yrotation Xrotation Zrotation
      JOINT upperChest
      {
        OFFSET 0 0.9855186130586943 0
        CHANNELS 3 Yrotation Xrotation Zrotation
        JOINT leftShoulder
        {
          OFFSET 0.1807663869 1.5087829790000005 0
          CHANNELS 3 Yrotation Xrotation Zrotation
          JOINT leftUpperArm
          {
            OFFSET 0.5985063006419806 0 0
            CHANNELS 3 Yrotation Xrotation Zrotation
            JOINT leftLowerArm
            {
              OFFSET 2.2993332369501065 0 0
              CHANNELS 3 Yrotation Xrotation Zrotation
              JOINT leftHand
              {
                OFFSET 2.395047042602395 0 0
                CHANNELS 3 Yrotation Xrotation Zrotation
                JOINT leftIndexProximal
                {
                  OFFSET 0.5766295810000004 0.04556643899499946 0.17265095988184
                  CHANNELS 3 Yrotation Xrotation Zrotation
                  JOINT leftIndexIntermediate
                  {
                    OFFSET 0.2957229000000008 -0.019352197700001517 -0.007932640616999987
                    CHANNELS 3 Yrotation Xrotation Zrotation
                    JOINT leftIndexDistal
                    {
                      OFFSET 0.19008243099999922 -0.012484908149998475 -0.002786250786000012
                      CHANNELS 3 Yrotation Xrotation Zrotation
                      End Site
                      {
                        OFFSET 0.19008243099999922 -0.012484908149998475 -0.002786250786000012
                      }
                    }
                  }
                }
                JOINT leftMiddleProximal
                {
                  OFFSET 0.5834975091000001 0.0524350405149987 0.02204081888183999
                  CHANNELS 3 Yrotation Xrotation Zrotation
                  JOINT leftMiddleIntermediate
                  {
                    OFFSET 0.33880573540000003 -0.019871473270000717 -0.00000971183179999946
                    CHANNELS 3 Yrotation Xrotation Zrotation
                    JOINT leftMiddleDistal
                    {
                      OFFSET 0.20676022730000088 -0.012221336379999448 0.0001471936708000235
                      CHANNELS 3 Yrotation Xrotation Zrotation
                      End Site
                      {
                        OFFSET 0.20676022730000088 -0.012221336379999448 0.0001471936708000235
                      }
                    }
                  }
                }
                JOINT leftLittleProximal
                {
                  OFFSET 0.5344154683999995 -0.012880921405001189 -0.24414037221816004
                  CHANNELS 3 Yrotation Xrotation Zrotation
                  JOINT leftLittleIntermediate
                  {
                    OFFSET 0.21758961730000093 -0.011650919939999227 0.011893592810000034
                    CHANNELS 3 Yrotation Xrotation Zrotation
                    JOINT leftLittleDistal
                    {
                      OFFSET 0.1475273964999999 -0.008152365682999818 0.006001092492999946
                      CHANNELS 3 Yrotation Xrotation Zrotation
                      End Site
                      {
                        OFFSET 0.1475273964999999 -0.008152365682999818 0.006001092492999946
                      }
                    }
                  }
                }
                JOINT leftRingProximal
                {
                  OFFSET 0.5799399463000003 0.026911854694997794 -0.12150566991816003
                  CHANNELS 3 Yrotation Xrotation Zrotation
                  JOINT leftRingIntermediate
                  {
                    OFFSET 0.26167887460000006 -0.013480186499999602 0.010996293000000053
                    CHANNELS 3 Yrotation Xrotation Zrotation
                    JOINT leftRingDistal
                    {
                      OFFSET 0.17667108799999987 -0.008990287899999228 0.0055541023999999065
                      CHANNELS 3 Yrotation Xrotation Zrotation
                      End Site
                      {
                        OFFSET 0.17667108799999987 -0.008990287899999228 0.0055541023999999065
                      }
                    }
                  }
                }
                JOINT leftThumbProximal
                {
                  OFFSET 0.11018806699999972 -0.09448718900500053 0.17047963138184
                  CHANNELS 3 Yrotation Xrotation Zrotation
                  JOINT leftThumbIntermediate
                  {
                    OFFSET 0.31062601459999983 -0.08126270900000132 0.15443142000000007
                    CHANNELS 3 Yrotation Xrotation Zrotation
                    JOINT leftThumbDistal
                    {
                      OFFSET 0.21627175790000086 -0.08833193599999878 0.018771167799999988
                      CHANNELS 3 Yrotation Xrotation Zrotation
                      End Site
                      {
                        OFFSET 0.21627175790000086 -0.08833193599999878 0.018771167799999988
                      }
                    }
                  }
                }
              }
            }
          }
        }
        JOINT neck
        {
          OFFSET 0 1.5463305265074576 0
          CHANNELS 3 Yrotation Xrotation Zrotation
          JOINT head
          {
            OFFSET 0 0.8456443600000344 0
            CHANNELS 3 Yrotation Xrotation Zrotation
            JOINT leftEye
            {
              OFFSET 0.30408573140000006 0.5104519199999995 0.1276382305
              CHANNELS 3 Yrotation Xrotation Zrotation
              End Site
              {
                OFFSET 0.30408573140000006 0.5104519199999995 0.1276382305
              }
            }
            JOINT rightEye
            {
              OFFSET -0.30409491089999996 0.5104519199999995 0.1276379445
              CHANNELS 3 Yrotation Xrotation Zrotation
              End Site
              {
                OFFSET -0.30409491089999996 0.5104519199999995 0.1276379445
              }
            }
            JOINT jaw
            {
              OFFSET -3.155239131000001e-7 -0.11984121820000082 0.60178107
              CHANNELS 3 Yrotation Xrotation Zrotation
              End Site
              {
                OFFSET -3.155239131000001e-7 -0.11984121820000082 0.60178107
              }
            }
          }
        }
        JOINT rightShoulder
        {
          OFFSET -0.1807303465 1.5087829790000005 0
          CHANNELS 3 Yrotation Xrotation Zrotation
          JOINT rightUpperArm
          {
            OFFSET -0.5985063796536958 0 0
            CHANNELS 3 Yrotation Xrotation Zrotation
            JOINT rightLowerArm
            {
              OFFSET -2.2993322059002854 0 0
              CHANNELS 3 Yrotation Xrotation Zrotation
              JOINT rightHand
              {
                OFFSET -2.395045314457259 0 0
                CHANNELS 3 Yrotation Xrotation Zrotation
                JOINT rightIndexProximal
                {
                  OFFSET -0.5764487688300002 0.0441371204405987 0.17361932004999997
                  CHANNELS 3 Yrotation Xrotation Zrotation
                  JOINT rightIndexIntermediate
                  {
                    OFFSET -0.29573011380000047 -0.01934826376999843 -0.007698921482999974
                    CHANNELS 3 Yrotation Xrotation Zrotation
                    JOINT rightIndexDistal
                    {
                      OFFSET -0.19008373999999884 -0.012503266380000655 -0.0026365778999999897
                      CHANNELS 3 Yrotation Xrotation Zrotation
                      End Site
                      {
                        OFFSET -0.19008373999999884 -0.012503266380000655 -0.0026365778999999897
                      }
                    }
                  }
                }
                JOINT rightMiddleProximal
                {
                  OFFSET -0.5834852037300005 0.05211639405060153 0.02307162440000001
                  CHANNELS 3 Yrotation Xrotation Zrotation
                  JOINT rightMiddleIntermediate
                  {
                    OFFSET -0.33880114510000003 -0.019952774050000954 0.0002455003561999819
                    CHANNELS 3 Yrotation Xrotation Zrotation
                    JOINT rightMiddleDistal
                    {
                      OFFSET -0.20675694929999955 -0.012273788999999091 0.00030209124000002766
                      CHANNELS 3 Yrotation Xrotation Zrotation
                      End Site
                      {
                        OFFSET -0.20675694929999955 -0.012273788999999091 0.00030209124000002766
                      }
                    }
                  }
                }
                JOINT rightLittleProximal
                {
                  OFFSET -0.5346811737299992 -0.011214256288399227 -0.24363941305000003
                  CHANNELS 3 Yrotation Xrotation Zrotation
                  JOINT rightLittleIntermediate
                  {
                    OFFSET -0.21757715980000092 -0.011771559690000988 0.01201554387
                    CHANNELS 3 Yrotation Xrotation Zrotation
                    JOINT rightLittleDistal
                    {
                      OFFSET -0.1475201849000004 -0.00822055339600003 0.006082065407000015
                      CHANNELS 3 Yrotation Xrotation Zrotation
                      End Site
                      {
                        OFFSET -0.1475201849000004 -0.00822055339600003 0.006082065407000015
                      }
                    }
                  }
                }
                JOINT rightRingProximal
                {
                  OFFSET -0.5800810755299999 0.027657985680600072 -0.12066365025000003
                  CHANNELS 3 Yrotation Xrotation Zrotation
                  JOINT rightRingIntermediate
                  {
                    OFFSET -0.26166445029999974 -0.013623118409999302 0.011164098990000045
                    CHANNELS 3 Yrotation Xrotation Zrotation
                    JOINT rightRingDistal
                    {
                      OFFSET -0.17666387530000027 -0.009072900100000503 0.005668185599999959
                      CHANNELS 3 Yrotation Xrotation Zrotation
                      End Site
                      {
                        OFFSET -0.17666387530000027 -0.009072900100000503 0.005668185599999959
                      }
                    }
                  }
                }
                JOINT rightThumbProximal
                {
                  OFFSET -0.10997596379000074 -0.09577489355940072 0.16989765924999997
                  CHANNELS 3 Yrotation Xrotation Zrotation
                  JOINT rightThumbIntermediate
                  {
                    OFFSET -0.31036620999999986 -0.08229339117999834 0.15440884469999996
                    CHANNELS 3 Yrotation Xrotation Zrotation
                    JOINT rightThumbDistal
                    {
                      OFFSET -0.21631306399999906 -0.08825326400000111 0.018656797720000014
                      CHANNELS 3 Yrotation Xrotation Zrotation
                      End Site
                      {
                        OFFSET -0.21631306399999906 -0.08825326400000111 0.018656797720000014
                      }
                    }
                  }
                }
              }
            }
          }
        }
      }
    }
  }
}
MOTION
Frames: 10
Frame Time: 0.03333333333333333
0 11.682712981546562 0 0 0 0 0 0 -5.826343164929014 -0.3712483961610101 -3.6333298826370974 5.838118207697276 0 0 0 0 0 0 0 0 5.826343164929014 0.3712483961610101 -3.6333298826370974 -5.838118207697276 0 0 0 0 0 0 0 -4.610651315171937 0 0 3.0831277533083026 0 0 0 0 0 1.5275236235667615 0 0 0 0 0 0 0 0 0 0 0 0 0 0 0 0 0 0 0 0 0 0 0 0 0 0 0 0 0 0 0 0 0 0 0 0 0 0 0 0 0 0 0 0 0 0 0 0 0 0 0 0 0 0 0 0 1.5275236235667615 0 0 0 0 0 0 0 0 0 0 0 0 0 0 1.5275236235667615 0 0 0 0 0 0 0 0 0 0 0 0 0 0 0 0 0 0 0 0 0 0 0 0 0 0 0 0 0 0 0 0 0 0 0 0 0 0 0 0 0 0 0 0 0 0 0 0 0 0 0 0 0 0 0
5.366740723532839 -0.002418482756739323 0.2539479360489263 0 3.99974819824721 0 2.3922615240651157 -9.374855342328758 1.853969892132855 0.9270747822908673 9.373523600117396 2.8281782704104996 -0.9877678431205642 -2.5180081658156865 3.620080325245267 0 0 0 -5.359377616847283 -9.093076568049431 0.6156008525378311 -1.1602697092790826 9.30269593111305 -0.061327024636318665 3.5998259027494957 -2.359514524705021 -9.06153483602035 0 0 0 -0.03646802617716476 4.009090799784822 -0.06743692978743349 -0.5830654117912454 -3.5255109723306504 -0.11686872805282006 0 0 0 7.628237200834662 2.2844866795107976 -4.698176556229604 -15.794397052347215 19.83948217074534 -58.318608597331426 -41.76898640554544 -13.16130312074976 -28.884496082301105 0 0 -7.00032480930298 0 0 0 0 0 0 0 0 0 0 0 0 0 0 0 0 0 0 0 0 0 0 0 0 0 0 0 0 0 0 0 0 0 0 0 0 0 0 0 0 0 0 0 0 0 0 0.850827593780721 0 0 -0.2640349969738785 0 0 0 0 0 0 0 0 0 0 -7.631761840794006 2.284384572411478 4.694572723455008 15.790539874777009 19.84175493005771 58.31413201885689 41.76557861251246 -13.15904185170981 28.88143095222991 0 0 6.996825090742016 0 0 0 0 0 0 0 0 0 0 0 0 0 0 0 0 0 0 0 0 0 0 0 0 0 0 0 0 0 0 0 0 0 0 0 0 0 0 0 0 0 0 0 0 0
5.366740723532839 -0.002418482756739323 0.26308454574872775 0 3.888663122811756 0 2.4423866050672065 -9.179993813392965 1.8616610137867255 0.9270747822908673 9.373523600117396 2.8281782704104996 -0.9877678431205642 -2.5180081658156865 3.620080325245267 0 0 0 -5.447426996495331 -8.899176202441133 0.5959522706387193 -1.1602697092790826 9.30269593111305 -0.061327024636318665 3.5998259027494957 -2.359514524705021 -9.06153483602035 0 0 0 -0.03641642582326852 3.759329397762884 -0.06726325755476213 -0.5829400159418328 -3.358978597639509 -0.11858314069424182 0 0 0 7.628237200834662 2.2844866795107976 -4.698176556229604 -15.794397052347215 19.83948035545538 -58.318608597331426 -41.76898406928571 -13.161302243945002 -28.884496082301105 0 0 -7.00032480930298 0 0 0 0 0 0 0 0 0 0 0 0 0 0 0 0 0 0 0 0 0 0 0 0 0 0 0 0 0 0 0 0 0 0 0 0 0 0 0 0 0 0 0 0 0 0 1.2412391487452523 0 0 -0.2640349969738785 0 0 0 0 0 0 0 0 0 0 -7.631761840794006 2.284384572411478 4.694572723455008 15.790537139993278 19.84175493005771 58.31413047413067 41.76557861251246 -13.15904185170981 28.88143095222991 0 0 6.996825090742016 0 0 0 0 0 0 0 0 0 0 0 0 0 0 0 0 0 0 0 0 0 0 0 0 0 0 0 0 0 0 0 0 0 0 0 0 0 0 0 0 0 0 0 0 0
5.366740723532839 -0.002418482756739323 0.2722211554485292 0 3.777578139477702 0 2.492510640548215 -8.985139057631928 1.8695207667530669 0.9270747822908673 9.373523600117396 2.8281782704104996 -0.9877678431205642 -2.5180081658156865 3.620080325245267 0 0 0 -5.535497369155479 -8.705305114517081 0.5760125761144478 -1.1602697092790826 9.30269593111305 -0.061327024636318665 3.5998259027494957 -2.359514524705021 -9.06153483602035 0 0 0 -0.036365623414206745 3.509568090236675 -0.06708978595790797 -0.5828196230181221 -3.192446408967183 -0.12029687736072965 0 0 0 7.628237200834662 2.2844866795107976 -4.698176556229604 -15.794395305594236 19.83948035545538 -58.318608597331426 -41.76898145347298 -13.161301367140249 -28.884496082301105 0 0 -7.00032480930298 0 0 0 0 0 0 0 0 0 0 0 0 0 0 0 0 0 0 0 0 0 0 0 0 0 0 0 0 0 0 0 0 0 0 0 0 0 0 0 0 0 0 0 0 0 0 1.6316505934079752 0 0 -0.2640349969738785 0 0 0 0 0 0 0 0 0 0 -7.631761840794006 2.284384572411478 4.694572723455008 15.790537139993278 19.84175311474176 58.314127384678386 41.76557861251246 -13.15904185170981 28.88143095222991 0 0 6.996825090742016 0 0 0 0 0 0 0 0 0 0 0 0 0 0 0 0 0 0 0 0 0 0 0 0 0 0 0 0 0 0 0 0 0 0 0 0 0 0 0 0 0 0 0 0 0
5.366740723532839 -0.002418482756739323 0.2904943748481321 0 3.5553939478939216 0 2.5927798464809877 -8.59537260378435 1.8857448549285285 0.9270747822908673 9.373522734789486 2.8281782704104996 -0.9877678431205642 -2.5180073112168935 3.620080325245267 0 0 0 -5.711747481346108 -8.317566653339982 0.5352519686723809 -1.1602697092790826 9.30269593111305 -0.061327024636318665 3.5998259027494957 -2.359514524705021 -9.06153483602035 0 0 0 -0.03626716543299488 3.009891274973475 -0.06674345666385413 -0.5825946415400474 -2.859334863098775 -0.12372173140211927 0 0 0 7.628236353943641 2.2844866795107976 -4.698176556229604 -15.794393558841232 19.83948217074534 -58.31860360101059 -41.76898640554544 -13.161301367140249 -28.88449454684888 0 0 -7.00032480930298 0 0 0 0 0 0 0 0 0 0 0 0 0 0 0 0 0 0 0 0 0 0 0 0 0 0 0 0 0 0 0 0 0 0 0 0 0 0 0 0 0 0 0 0 0 0 2.414072530797927 0 0 -0.2640349969738785 0 0 0 0 0 0 0 0 0 0 -7.631759300142013 2.2843835043456235 4.694571871868907 15.790537139993278 19.84175493005771 58.31413201885689 41.76557861251246 -13.15904185170981 28.88143095222991 0 0 6.996825090742016 0 0 0 0 0 0 0 0 0 0 0 0 0 0 0 0 0 0 0 0 0 0 0 0 0 0 0 0 0 0 0 0 0 0 0 0 0 0 0 0 0 0 0 0 0
5.366740723532839 -0.002418482756739323 0.29963085035179793 0 3.444296474051906 0 2.642927615662531 -8.400465091223158 1.894110196302137 0.9270747822908673 9.373523600117396 2.8281782704104996 -0.9877678431205642 -2.5180073112168935 3.620080325245267 0 0 0 -5.799930906884001 -8.123707777880858 0.5144299853879555 -1.1602698174009145 9.30269593111305 -0.06132703139531521 3.5998259027494957 -2.359514524705021 -9.06153483602035 0 0 0 -0.036218506527678274 2.759987502782645 -0.06657044940261447 -0.5824895269144946 -2.6927595440516883 -0.12543387127513286 0 0 0 7.628236353943641 2.2844866795107976 -4.698176556229604 -15.794395305594236 19.83948217074534 -58.318607052552835 -41.76898640554544 -13.161302243945002 -28.884497617753276 0 0 -7.00032480930298 0 0 0 0 0 0 0 0 0 0 0 0 0 0 0 0 0 0 0 0 0 0 0 0 0 0 0 0 0 0 0 0 0 0 0 0 0 0 0 0 0 0 0 0 0 0 2.806048703477605 0 0 -0.2640349969738785 0 0 0 0 0 0 0 0 0 0 -7.6317601470260135 2.2843841451851365 4.694572723455008 15.790538886804509 19.84175493005771 58.31413201885689 41.76557861251246 -13.15904185170981 28.881432487713244 0 0 6.996825090742016 0 0 0 0 0 0 0 0 0 0 0 0 0 0 0 0 0 0 0 0 0 0 0 0 0 0 0 0 0 0 0 0 0 0 0 0 0 0 0 0 0 0 0 0 0
5.366740723532839 -0.002418482756739323 0.3087673258554638 0 3.333198922044351 0 2.6930791871063864 -8.205564870037026 1.9026437994336602 0.9270748904426964 9.373524465445309 2.8281782704104996 -0.9877678431205642 -2.5180081658156865 3.620080325245267 0 0 0 -5.888144184929552 -7.9298804201856985 0.49331668428936304 -1.1602698174009145 9.30269679626508 -0.061327044913308267 3.5998259027494957 -2.359514524705021 -9.06153483602035 0 0 0 -0.036170637514218174 2.510083495279967 -0.06639760950660874 -0.5823894292650607 -2.5261843518036975 -0.12714547074070223 0 0 0 7.628237200834662 2.2844866795107976 -4.698176556229604 -15.794397052347215 19.83948217074534 -58.318608597331426 -41.76898406928571 -13.16130312074976 -28.884502382804015 0 0 -7.00032480930298 0 0 0 0 0 0 0 0 0 0 0 0 0 0 0 0 0 0 0 0 0 0 0 0 0 0 0 0 0 0 0 0 0 0 0 0 0 0 0 0 0 0 0 0 0 0 3.198024673305972 0 0 -0.2640349969738785 0 0 0 0 0 0 0 0 0 0 -7.631761840794006 2.284384572411478 4.694574000834156 15.790539874777009 19.84175493005771 58.31413201885689 41.76557861251246 -13.15904185170981 28.881435717163107 0 0 6.996825090742016 0 0 0 0 0 0 0 0 0 0 0 0 0 0 0 0 0 0 0 0 0 0 0 0 0 0 0 0 0 0 0 0 0 0 0 0 0 0 0 0 0 0 0 0 0
5.366740723532839 -0.002418482756739323 0.3270405452550667 0 3.110992935383437 0 2.793412861756513 -7.81573329700087 1.9202225448918018 0.9270747822908673 9.373523600117396 2.8281782704104996 -0.9877678431205642 -2.5180081658156865 3.620080325245267 0 0 0 -6.06469158026844 -7.542255236864593 0.450209445994476 -1.1602697092790826 9.30269593111305 -0.061327024636318665 3.5998259027494957 -2.359514524705021 -9.061535679854105 0 0 0 -0.03607800630509324 2.010159657076673 -0.06605248399827819 -0.5822040186852331 -2.1930007356904153 -0.13056727997277254 0 0 0 7.628237200834662 2.2844866795107976 -4.698176556229604 -15.794397052347215 19.83948217074534 -58.318608597331426 -41.76898640554544 -13.16130312074976 -28.884496082301105 0 0 -7.00032480930298 0 0 0 0 0 0 0 0 0 0 0 0 0 0 0 0 0 0 0 0 0 0 0 0 0 0 0 0 0 0 0 0 0 0 0 0 0 0 0 0 0 0 0 0 0 0 3.9834386983299064 0 0 -0.2640349969738785 0 0 0 0 0 0 0 0 0 0 -7.631761840794006 2.284384572411478 4.694572723455008 15.790541621588307 19.84175493005771 58.31413701534149 41.76557861251246 -13.15904185170981 28.88143095222991 0 0 6.996825090742016 0 0 0 0 0 0 0 0 0 0 0 0 0 0 0 0 0 0 0 0 0 0 0 0 0 0 0 0 0 0 0 0 0 0 0 0 0 0 0 0 0 0 0 0 0
5.366740723532839 -0.002418482756739323 0.3361771549548682 0 2.999886446324498 0 2.8435959011105787 -7.620802635896289 1.9292636175962705 0.9270747822908673 9.373523600117396 2.8281782704104996 -0.9877678431205642 -2.5180081658156865 3.620080325245267 0 0 0 -6.153031140086539 -7.348466726232348 0.42821518295089195 -1.1602697092790826 9.30269593111305 -0.061327024636318665 3.5998259027494957 -2.359514524705021 -9.06153483602035 0 0 0 -0.036032200073629825 1.7601503206417441 -0.06588055887461147 -0.5821192314283548 -2.0263950566878215 -0.13227750419175274 0 0 0 7.628237200834662 2.2844866795107976 -4.698176556229604 -15.794397052347215 19.83948217074534 -58.318608597331426 -41.76898640554544 -13.16130312074976 -28.884496082301105 0 0 -7.00032480930298 0 0 0 0 0 0 0 0 0 0 0 0 0 0 0 0 0 0 0 0 0 0 0 0 0 0 0 0 0 0 0 0 0 0 0 0 0 0 0 0 0 0 0 0 0 0 4.3768415191059145 0 0 -0.2640349969738785 0 0 0 0 0 0 0 0 0 0 -7.631761840794006 2.284384572411478 4.694572723455008 15.790541621588307 19.84175493005771 58.31413547061521 41.76557861251246 -13.15904185170981 28.88143095222991 0 0 6.996825090742016 0 0 0 0 0 0 0 0 0 0 0 0 0 0 0 0 0 0 0 0 0 0 0 0 0 0 0 0 0 0 0 0 0 0 0 0 0 0 0 0 0 0 0 0 0
5.366740723532839 -0.002418482756739323 0.3453137646546697 0 2.8887799203219218 0 2.8937875605078713 -7.425879734791173 1.9384729869133 0.9270747822908673 9.373523600117396 2.8281782704104996 -0.9877678431205642 -2.5180081658156865 3.620080325245267 0 0 0 -6.24140823412194 -7.1547115084574875 0.4059292239294857 -1.1602697092790826 9.30269593111305 -0.061327024636318665 3.5998259027494957 -2.359514524705021 -9.06153483602035 0 0 0 -0.03598717703079746 1.5101408747883323 -0.06570877860046198 -0.5820393911017887 -1.8597892190893515 -0.1339873221220102 0 0 0 7.628237200834662 2.2844866795107976 -4.698176556229604 -15.794397052347215 19.83948217074534 -58.318608597331426 -41.76898640554544 -13.16130312074976 -28.884496082301105 0 0 -7.00032480930298 0 0 0 0 0 0 0 0 0 0 0 0 0 0 0 0 0 0 0 0 0 0 0 0 0 0 0 0 0 0 0 0 0 0 0 0 0 0 0 0 0 0 0 0 0 0 4.770244723684883 0 0 -0.2640349969738785 0 0 0 0 0 0 0 0 0 0 -7.631761840794006 2.284384572411478 4.694572723455008 15.790539874777009 19.84175493005771 58.31413201885689 41.76557861251246 -13.15904185170981 28.88143095222991 0 0 6.996825090742016 0 0 0 0 0 0 0 0 0 0 0 0 0 0 0 0 0 0 0 0 0 0 0 0 0 0 0 0 0 0 0 0 0 0 0 0 0 0 0 0 0 0 0 0 0
